<svg width="266" height="266" viewBox="0 0 266 266" fill="none" xmlns="http://www.w3.org/2000/svg">
<g clip-path="url(#clip0_101_2)">
<rect width="266" height="266" fill="white"/>
<circle cx="133" cy="133" r="133" fill="#D9D9D9"/>
<path d="M89.25 120.75L84.5625 110.438L74.25 105.75L84.5625 101.062L89.25 90.75L93.9375 101.062L104.25 105.75L93.9375 110.438L89.25 120.75ZM170.5 102L167.844 95.9062L161.75 93.25L167.844 90.5938L170.5 84.5L173.156 90.5938L179.25 93.25L173.156 95.9062L170.5 102ZM183 127L180.344 120.906L174.25 118.25L180.344 115.594L183 109.5L185.656 115.594L191.75 118.25L185.656 120.906L183 127ZM133 152.156C128.521 152.156 124.771 150.542 121.75 147.312C118.729 144.083 117.219 140.177 117.219 135.594V96.375C117.219 92 118.755 88.3021 121.828 85.2812C124.901 82.2604 128.625 80.75 133 80.75C137.375 80.75 141.099 82.2604 144.172 85.2812C147.245 88.3021 148.781 92 148.781 96.375V135.594C148.781 140.177 147.271 144.083 144.25 147.312C141.229 150.542 137.479 152.156 133 152.156ZM128.313 199.5V178.25C117.271 177.104 108 172.469 100.5 164.344C93 156.219 89.25 146.635 89.25 135.594H98.625C98.625 145.073 101.984 153.042 108.703 159.5C115.422 165.958 123.521 169.188 133 169.188C142.479 169.188 150.578 165.958 157.297 159.5C164.016 153.042 167.375 145.073 167.375 135.594H176.75C176.75 146.635 173 156.219 165.5 164.344C158 172.469 148.729 177.104 137.688 178.25V199.5H128.313ZM133 142.781C134.875 142.781 136.411 142.078 137.609 140.672C138.807 139.266 139.406 137.573 139.406 135.594V96.375C139.406 94.6042 138.781 93.1198 137.531 91.9219C136.281 90.724 134.771 90.125 133 90.125C131.229 90.125 129.719 90.724 128.469 91.9219C127.219 93.1198 126.594 94.6042 126.594 96.375V135.594C126.594 137.573 127.193 139.266 128.391 140.672C129.589 142.078 131.125 142.781 133 142.781Z" fill="black"/>
</g>
<defs>
<clipPath id="clip0_101_2">
<rect width="266" height="266" fill="white"/>
</clipPath>
</defs>
</svg>
